<svg width="20" height="20" viewBox="0 0 20 20" fill="none" xmlns="http://www.w3.org/2000/svg">
<g id="Main / add">
<path id="Vector (Stroke)" fill-rule="evenodd" clip-rule="evenodd" d="M10 1.25C10.2301 1.25 10.4167 1.43655 10.4167 1.66667V9.58333H18.3333C18.5635 9.58333 18.75 9.76988 18.75 10C18.75 10.2301 18.5635 10.4167 18.3333 10.4167H10.4167V18.3333C10.4167 18.5635 10.2301 18.75 10 18.75C9.76988 18.75 9.58333 18.5635 9.58333 18.3333V10.4167H1.66667C1.43655 10.4167 1.25 10.2301 1.25 10C1.25 9.76988 1.43655 9.58333 1.66667 9.58333H9.58333V1.66667C9.58333 1.43655 9.76988 1.25 10 1.25Z" fill="white"/>
</g>
</svg>
