<svg width="16" height="16" viewBox="0 0 16 16" fill="none" xmlns="http://www.w3.org/2000/svg">
<g id="arw-node-l">
<path id="Vector" d="M15.9167 9.77919C15.9153 11.2154 15.3442 12.5923 14.3286 13.6078C13.3131 14.6234 11.9362 15.1945 10.5 15.1959C10.3895 15.1959 10.2835 15.152 10.2054 15.0738C10.1272 14.9957 10.0833 14.8897 10.0833 14.7792C10.0833 14.6687 10.1272 14.5627 10.2054 14.4846C10.2835 14.4064 10.3895 14.3625 10.5 14.3625C11.7156 14.3625 12.8814 13.8796 13.7409 13.0201C14.6004 12.1606 15.0833 10.9948 15.0833 9.77919C15.0833 8.56361 14.6004 7.39782 13.7409 6.53828C12.8814 5.67874 11.7156 5.19586 10.5 5.19586H1.92083L4.90833 8.18336C4.98629 8.26137 5.03016 8.36709 5.03033 8.47738C5.0305 8.58767 4.98697 8.69353 4.90926 8.77179C4.83155 8.85005 4.726 8.89433 4.61571 8.89494C4.50543 8.89554 4.3994 8.85242 4.32083 8.77502L0.620833 5.07502C0.544068 4.99558 0.500803 4.88966 0.5 4.77919C0.500849 4.66996 0.544187 4.56535 0.620833 4.48752L4.32083 0.787522C4.35938 0.748889 4.40516 0.718239 4.45557 0.697327C4.50598 0.676414 4.56001 0.665649 4.61458 0.665649C4.66916 0.665649 4.72319 0.676414 4.7736 0.697327C4.824 0.718239 4.86979 0.748889 4.90833 0.787522C4.9864 0.866192 5.0302 0.972527 5.0302 1.08336C5.0302 1.19418 4.9864 1.30052 4.90833 1.37919L1.92083 4.36252H10.5C11.936 4.3646 13.3125 4.93595 14.3279 5.95132C15.3432 6.96669 15.9146 8.34324 15.9167 9.77919Z" fill="white"/>
</g>
</svg>
