<svg width="24" height="24" viewBox="0 0 24 24" fill="none" xmlns="http://www.w3.org/2000/svg">
<g id="controal-4">
<path id="Vector" d="M13 23.5H11C10.7349 23.4997 10.4807 23.3942 10.2932 23.2068C10.1058 23.0193 10.0003 22.7651 10 22.5V20.7654C9.01475 20.5452 8.07443 20.1581 7.21973 19.6208L5.98973 20.8389C5.80197 21.0261 5.54762 21.1313 5.28245 21.1313C5.01728 21.1313 4.76293 21.0261 4.57517 20.8389L3.16113 19.4246C2.97377 19.237 2.86853 18.9827 2.86853 18.7175C2.86853 18.4524 2.97377 18.1981 3.16113 18.0105L4.38574 16.7859C3.84673 15.9325 3.45704 14.9935 3.2334 14.0093L1.5 14C1.23488 13.9997 0.980699 13.8942 0.793228 13.7068C0.605757 13.5193 0.500303 13.2651 0.5 13V11C0.500303 10.7349 0.605757 10.4807 0.793228 10.2932C0.980699 10.1058 1.23488 10.0003 1.5 10H3.23438C3.45504 9.01506 3.8421 8.07498 4.3789 7.22021L3.16113 5.9895C2.97377 5.80191 2.86853 5.54761 2.86853 5.28247C2.86853 5.01733 2.97377 4.76303 3.16113 4.57544L4.57519 3.16113C4.76283 2.97366 5.01723 2.86835 5.28247 2.86835C5.54772 2.86835 5.80211 2.97366 5.98975 3.16113L7.21435 4.386C8.06752 3.84635 9.00667 3.45653 9.99121 3.2334L10 1.5C10.0003 1.23488 10.1058 0.980699 10.2932 0.793228C10.4807 0.605757 10.7349 0.500303 11 0.5H13C13.2651 0.500303 13.5193 0.605757 13.7068 0.793228C13.8942 0.980699 13.9997 1.23488 14 1.5V3.23462C14.9852 3.45479 15.9256 3.84188 16.7803 4.37915L18.0103 3.16115C18.1979 2.97367 18.4523 2.86836 18.7176 2.86836C18.9828 2.86836 19.2372 2.97367 19.4248 3.16115L20.8389 4.57546C21.0263 4.76305 21.1315 5.01735 21.1315 5.28249C21.1315 5.54762 21.0263 5.80192 20.8389 5.98951L19.6143 7.21413C20.1533 8.06751 20.543 9.00648 20.7666 9.99074L22.5 10C22.7651 10.0003 23.0193 10.1058 23.2068 10.2932C23.3942 10.4807 23.4997 10.7349 23.5 11V13C23.4997 13.2651 23.3942 13.5193 23.2068 13.7068C23.0193 13.8942 22.7651 13.9997 22.5 14H20.7656C20.545 14.9849 20.1579 15.925 19.6211 16.7798L20.8389 18.0105C21.0262 18.1981 21.1315 18.4524 21.1315 18.7175C21.1315 18.9827 21.0262 19.237 20.8389 19.4246L19.4248 20.8389C19.2371 21.0261 18.9827 21.1313 18.7175 21.1313C18.4524 21.1313 18.198 21.0261 18.0103 20.8389L16.7856 19.614C15.9325 20.1537 14.9933 20.5435 14.0088 20.7666L14 22.5C13.9997 22.7651 13.8942 23.0193 13.7068 23.2068C13.5193 23.3942 13.2651 23.4997 13 23.5ZM7.2085 18.616C7.40095 18.6164 7.58935 18.6712 7.75196 18.7742C8.50903 19.2496 9.34108 19.5936 10.2129 19.7915C10.4354 19.8398 10.6348 19.9627 10.778 20.1398C10.9211 20.3169 10.9995 20.5376 11 20.7654V22.5H13V20.7654C13.0005 20.5376 13.0789 20.3169 13.222 20.1398C13.3652 19.9627 13.5646 19.8398 13.7871 19.7915C14.6589 19.5936 15.491 19.2496 16.248 18.7742C16.4397 18.6512 16.6676 18.5974 16.894 18.6216C17.1204 18.6458 17.3318 18.7466 17.4932 18.9072L18.7173 20.1318L20.1318 18.7175L18.9072 17.4929C18.7464 17.3316 18.6456 17.1202 18.6214 16.8938C18.5973 16.6673 18.6513 16.4394 18.7744 16.2478C19.2497 15.4905 19.5937 14.6584 19.792 13.7866C19.8402 13.5641 19.9631 13.3648 20.1402 13.2217C20.3173 13.0786 20.538 13.0004 20.7656 13H22.5V11H20.7656C20.5378 10.9995 20.317 10.9212 20.1398 10.778C19.9626 10.6348 19.8397 10.4353 19.7915 10.2126C19.5934 9.34101 19.2495 8.50909 18.7744 7.75196C18.6513 7.56037 18.5973 7.33246 18.6215 7.106C18.6456 6.87954 18.7464 6.66813 18.9072 6.50683L20.1318 5.28247L18.7178 3.86817L17.4927 5.093C17.3315 5.25385 17.1202 5.35473 16.8938 5.37889C16.6674 5.40305 16.4395 5.34903 16.248 5.22581C15.491 4.75036 14.6589 4.40641 13.7871 4.2085C13.5646 4.16021 13.3652 4.03732 13.222 3.8602C13.0789 3.68308 13.0005 3.46236 13 3.23462V1.5H11V3.23462C10.9995 3.46236 10.9211 3.68308 10.778 3.8602C10.6348 4.03732 10.4354 4.16021 10.2129 4.2085C9.34108 4.40641 8.50903 4.75038 7.75196 5.22583C7.56038 5.34904 7.33242 5.40302 7.10594 5.37882C6.87945 5.35462 6.66805 5.25368 6.50683 5.09278L5.28271 3.86817L3.86817 5.28247L5.09277 6.50708C5.25357 6.66837 5.35441 6.87977 5.37857 7.10624C5.40272 7.3327 5.34874 7.56062 5.22558 7.75219C4.75034 8.5095 4.40632 9.34158 4.208 10.2134C4.15979 10.4359 4.03694 10.6352 3.85985 10.7783C3.68275 10.9214 3.46205 10.9996 3.23438 11H1.5V13H3.23438C3.4622 13.0005 3.68302 13.0788 3.8602 13.222C4.03738 13.3652 4.16028 13.5647 4.2085 13.7874C4.40661 14.659 4.75048 15.4909 5.22559 16.248C5.34874 16.4396 5.40271 16.6675 5.37855 16.894C5.35439 17.1205 5.25357 17.3319 5.09278 17.4932L3.86817 18.7175L5.28223 20.1318L6.50733 18.907C6.59922 18.8146 6.70848 18.7413 6.82882 18.6914C6.94917 18.6414 7.0782 18.6158 7.2085 18.616ZM12 16.5C11.11 16.5 10.24 16.2361 9.49993 15.7416C8.75991 15.2471 8.18314 14.5443 7.84254 13.7221C7.50195 12.8998 7.41283 11.995 7.58647 11.1221C7.7601 10.2492 8.18868 9.44736 8.81802 8.81802C9.44736 8.18868 10.2492 7.7601 11.1221 7.58647C11.995 7.41283 12.8998 7.50195 13.7221 7.84254C14.5443 8.18314 15.2471 8.75991 15.7416 9.49993C16.2361 10.24 16.5 11.11 16.5 12C16.4987 13.1931 16.0241 14.3369 15.1805 15.1805C14.3369 16.0241 13.1931 16.4987 12 16.5ZM12 8.5C11.3078 8.5 10.6311 8.70527 10.0555 9.08986C9.47993 9.47444 9.03133 10.0211 8.76642 10.6606C8.50151 11.3001 8.4322 12.0039 8.56725 12.6828C8.7023 13.3617 9.03564 13.9854 9.52513 14.4749C10.0146 14.9644 10.6383 15.2977 11.3172 15.4327C11.9961 15.5678 12.6999 15.4985 13.3394 15.2336C13.9789 14.9687 14.5256 14.5201 14.9101 13.9445C15.2947 13.3689 15.5 12.6922 15.5 12C15.4989 11.0721 15.1298 10.1825 14.4737 9.52632C13.8175 8.87018 12.9279 8.50108 12 8.5Z" fill="white"/>
</g>
</svg>
