<svg width="24" height="24" viewBox="0 0 24 24" fill="none" xmlns="http://www.w3.org/2000/svg">
<g id="Main / cross">
<path id="Vector" d="M21.23 2.64645C21.2764 2.69288 21.3132 2.74799 21.3383 2.80866C21.3635 2.86932 21.3764 2.93434 21.3764 3C21.3764 3.06566 21.3635 3.13068 21.3383 3.19134C21.3132 3.25201 21.2764 3.30713 21.23 3.35356L12.5839 12L21.23 20.6464C21.2764 20.6929 21.3132 20.748 21.3383 20.8087C21.3635 20.8693 21.3764 20.9343 21.3764 21C21.3764 21.0657 21.3635 21.1307 21.3383 21.1913C21.3132 21.252 21.2764 21.3071 21.23 21.3536C21.1835 21.4 21.1284 21.4368 21.0677 21.4619C21.0071 21.4871 20.9421 21.5 20.8764 21.5C20.8107 21.5 20.7457 21.4871 20.6851 21.4619C20.6244 21.4368 20.5693 21.4 20.5229 21.3536L11.8764 12.7075L3.47691 21.1066C3.38303 21.1998 3.25602 21.252 3.12372 21.2518C2.99141 21.2516 2.86459 21.1989 2.77103 21.1054C2.67748 21.0118 2.62482 20.885 2.62459 20.7527C2.62436 20.6204 2.67657 20.4934 2.7698 20.3995L11.1689 12L2.7698 3.6005C2.7232 3.55411 2.68621 3.49898 2.66094 3.43827C2.63567 3.37757 2.62263 3.31247 2.62256 3.24671C2.62249 3.18096 2.63538 3.11584 2.66051 3.05507C2.68564 2.99431 2.72251 2.9391 2.76901 2.8926C2.8155 2.84611 2.87071 2.80924 2.93148 2.78411C2.99224 2.75898 3.05737 2.74608 3.12312 2.74616C3.18888 2.74623 3.25397 2.75928 3.31468 2.78454C3.37539 2.80981 3.43052 2.8468 3.47691 2.8934L11.8764 11.2925L20.5229 2.64645C20.6166 2.55268 20.7438 2.5 20.8764 2.5C21.009 2.5 21.1362 2.55268 21.23 2.64645Z" fill="black"/>
</g>
</svg>
