<svg width="20" height="20" viewBox="0 0 20 20" fill="none" xmlns="http://www.w3.org/2000/svg">
<g id="Main / cross">
<path id="Vector" d="M17.6917 2.20529C17.7304 2.24398 17.7611 2.28991 17.782 2.34047C17.803 2.39102 17.8138 2.4452 17.8138 2.49992C17.8138 2.55464 17.803 2.60882 17.782 2.65937C17.7611 2.70992 17.7304 2.75586 17.6917 2.79455L10.4866 9.99992L17.6917 17.2053C17.7304 17.244 17.7611 17.2899 17.782 17.3405C17.803 17.391 17.8138 17.4452 17.8138 17.4999C17.8138 17.5546 17.803 17.6088 17.782 17.6594C17.7611 17.7099 17.7304 17.7559 17.6917 17.7945C17.653 17.8332 17.6071 17.8639 17.5565 17.8849C17.506 17.9058 17.4518 17.9166 17.3971 17.9166C17.3424 17.9166 17.2882 17.9058 17.2376 17.8849C17.1871 17.8639 17.1411 17.8332 17.1025 17.7945L9.89704 10.5895L2.8975 17.5888C2.81927 17.6664 2.71343 17.71 2.60318 17.7098C2.49292 17.7096 2.38724 17.6657 2.30928 17.5877C2.23131 17.5098 2.18743 17.4041 2.18724 17.2938C2.18704 17.1836 2.23056 17.0777 2.30825 16.9995L9.30748 9.99992L2.30825 3.00034C2.26941 2.96168 2.23859 2.91574 2.21753 2.86515C2.19648 2.81456 2.18561 2.76031 2.18555 2.70551C2.18549 2.65072 2.19623 2.59645 2.21718 2.54581C2.23812 2.49517 2.26884 2.44917 2.30759 2.41042C2.34633 2.37167 2.39234 2.34095 2.44298 2.32001C2.49362 2.29907 2.54789 2.28832 2.60268 2.28838C2.65748 2.28845 2.71173 2.29931 2.76232 2.32037C2.8129 2.34143 2.85884 2.37225 2.8975 2.41109L9.89704 9.41034L17.1025 2.20529C17.1806 2.12715 17.2866 2.08325 17.3971 2.08325C17.5076 2.08325 17.6136 2.12715 17.6917 2.20529Z" fill="#ED0007"/>
</g>
</svg>
