<svg width="24" height="24" viewBox="0 0 24 24" fill="none" xmlns="http://www.w3.org/2000/svg">
<g id="Main / drag&#38;drop">
<path id="Union" fill-rule="evenodd" clip-rule="evenodd" d="M7.5 7H4.5C4.22386 7 4 7.22386 4 7.5C4 7.77614 4.22386 8 4.5 8H7.5C7.77614 8 8 7.77614 8 7.5C8 7.22386 7.77614 7 7.5 7ZM13.5 7H10.5C10.2239 7 10 7.22386 10 7.5C10 7.77614 10.2239 8 10.5 8H13.5C13.7761 8 14 7.77614 14 7.5C14 7.22386 13.7761 7 13.5 7ZM16.5 7H19.5C19.7761 7 20 7.22386 20 7.5C20 7.77614 19.7761 8 19.5 8H16.5C16.2239 8 16 7.77614 16 7.5C16 7.22386 16.2239 7 16.5 7ZM7.5 11.5H4.5C4.22386 11.5 4 11.7239 4 12C4 12.2761 4.22386 12.5 4.5 12.5H7.5C7.77614 12.5 8 12.2761 8 12C8 11.7239 7.77614 11.5 7.5 11.5ZM10.5 11.5H13.5C13.7761 11.5 14 11.7239 14 12C14 12.2761 13.7761 12.5 13.5 12.5H10.5C10.2239 12.5 10 12.2761 10 12C10 11.7239 10.2239 11.5 10.5 11.5ZM19.5 11.5H16.5C16.2239 11.5 16 11.7239 16 12C16 12.2761 16.2239 12.5 16.5 12.5H19.5C19.7761 12.5 20 12.2761 20 12C20 11.7239 19.7761 11.5 19.5 11.5ZM4.5 16H7.5C7.77614 16 8 16.2239 8 16.5C8 16.7761 7.77614 17 7.5 17H4.5C4.22386 17 4 16.7761 4 16.5C4 16.2239 4.22386 16 4.5 16ZM13.5 16H10.5C10.2239 16 10 16.2239 10 16.5C10 16.7761 10.2239 17 10.5 17H13.5C13.7761 17 14 16.7761 14 16.5C14 16.2239 13.7761 16 13.5 16ZM16.5 16H19.5C19.7761 16 20 16.2239 20 16.5C20 16.7761 19.7761 17 19.5 17H16.5C16.2239 17 16 16.7761 16 16.5C16 16.2239 16.2239 16 16.5 16Z" fill="black"/>
</g>
</svg>
