<svg width="23" height="24" viewBox="0 0 23 24" fill="none" xmlns="http://www.w3.org/2000/svg">
<g id="edit-user">
<path id="Vector" d="M17.585 14.79C16.669 14.5071 15.8106 14.0636 15.05 13.48C15.9761 12.551 16.6952 11.4366 17.16 10.21C17.1861 10.1951 17.2112 10.1784 17.235 10.16C17.39 10.09 17.5218 9.9773 17.615 9.835C18.28 8.66 18.46 7.715 18.14 7.035C18.0147 6.76424 17.8085 6.53892 17.55 6.39C17.5575 5.57124 17.4618 4.7548 17.265 3.96C17.255 3.925 16.265 0.425003 11.99 0.425003C7.71499 0.425003 6.725 3.925 6.71499 3.96C6.51706 4.75468 6.41963 5.57106 6.42499 6.39C6.168 6.53935 5.96362 6.76469 5.83999 7.035C5.51999 7.715 5.69499 8.66 6.36499 9.835C6.45739 9.97606 6.58724 10.0886 6.73999 10.16C6.76502 10.175 6.79502 10.195 6.81999 10.21C7.2859 11.4387 8.00671 12.5549 8.93499 13.485C8.17335 14.0687 7.31301 14.5107 6.39499 14.79C4.06499 15.52 0.944995 17.08 0.704995 22.09C0.701148 22.2055 0.736658 22.3189 0.805701 22.4115C0.874745 22.5042 0.973226 22.5707 1.08499 22.6C4.22381 23.292 7.43096 23.6258 10.645 23.595C11.085 23.595 11.54 23.59 12.005 23.575C12.1376 23.571 12.2631 23.5144 12.354 23.4179C12.4449 23.3213 12.4937 23.1926 12.4898 23.06C12.4858 22.9274 12.4293 22.8019 12.3328 22.7109C12.2363 22.62 12.1076 22.5711 11.975 22.575C8.54012 22.6853 5.10401 22.3984 1.73499 21.72C2.06999 17.735 4.41999 16.46 6.69499 15.74C7.79807 15.4079 8.82447 14.8608 9.71499 14.13C10.3754 14.6164 11.1699 14.8871 11.99 14.905C12.81 14.8871 13.6046 14.6164 14.265 14.13C15.1555 14.8608 16.1819 15.4079 17.285 15.74C17.3335 15.7556 17.384 15.764 17.435 15.765C17.554 15.7647 17.669 15.7218 17.7592 15.6442C17.8494 15.5666 17.9089 15.4593 17.927 15.3417C17.9451 15.224 17.9206 15.1038 17.8579 15.0027C17.7952 14.9015 17.6984 14.8261 17.585 14.79ZM7.73499 9.785C7.67002 9.56 7.49999 9.455 7.26999 9.31C7.23999 9.295 7.20999 9.275 7.18499 9.26C6.56999 8.135 6.66499 7.635 6.73999 7.47C6.7654 7.40889 6.8042 7.35425 6.85352 7.31012C6.90284 7.26599 6.96144 7.23348 7.02499 7.215C7.14421 7.19166 7.25112 7.12636 7.32634 7.03097C7.40156 6.93557 7.4401 6.81638 7.43499 6.695C7.39983 5.86259 7.48231 5.02937 7.67999 4.22C7.70999 4.11 8.49999 1.425 11.99 1.425C15.48 1.425 16.27 4.11 16.3 4.22C16.492 5.03033 16.5744 5.86276 16.545 6.695C16.5428 6.81363 16.5813 6.92943 16.6541 7.02313C16.7268 7.11683 16.8295 7.18278 16.945 7.21C17.0103 7.22883 17.0707 7.26191 17.1217 7.30687C17.1727 7.35183 17.2131 7.40755 17.24 7.47C17.31 7.635 17.41 8.135 16.79 9.26C16.765 9.275 16.74 9.295 16.71 9.31C16.475 9.455 16.31 9.56 16.245 9.78C15.995 10.655 14.29 13.905 11.99 13.905C9.68999 13.905 7.98499 10.655 7.73499 9.785ZM22.28 16.46L21.255 15.435C20.9801 15.1612 20.608 15.0075 20.22 15.0075C19.832 15.0075 19.4599 15.1612 19.185 15.435L15.1 19.52C15.0397 19.5857 14.9952 19.6644 14.97 19.75L14.12 22.985C14.1004 23.059 14.0982 23.1365 14.1134 23.2115C14.1287 23.2865 14.161 23.357 14.2079 23.4174C14.2549 23.4779 14.3151 23.5267 14.384 23.5601C14.4528 23.5935 14.5285 23.6106 14.605 23.61C14.6471 23.6099 14.6891 23.6049 14.73 23.595L17.965 22.745C18.0496 22.7209 18.1269 22.6762 18.19 22.615L22.28 18.525C22.5537 18.2511 22.7075 17.8797 22.7075 17.4925C22.7075 17.1053 22.5537 16.7339 22.28 16.46ZM15.305 22.41L15.69 20.955L16.795 22.015L15.305 22.41ZM21.57 17.82L17.795 21.595L16.085 19.955L19.895 16.145C19.9378 16.1016 19.9888 16.0672 20.045 16.0437C20.1012 16.0202 20.1616 16.0081 20.2225 16.0081C20.2834 16.0081 20.3438 16.0202 20.4 16.0437C20.4562 16.0672 20.5072 16.1016 20.55 16.145L21.57 17.165C21.6565 17.2521 21.705 17.3698 21.705 17.4925C21.705 17.6152 21.6565 17.7329 21.57 17.82Z" fill="black"/>
</g>
</svg>
