<svg width="23" height="23" viewBox="0 0 23 23" fill="none" xmlns="http://www.w3.org/2000/svg">
<g id="pencil">
<path id="Vector" d="M21.995 3.76498L19.23 1.02998C18.9469 0.751473 18.5651 0.596227 18.1679 0.5981C17.7708 0.599974 17.3905 0.758814 17.11 1.03998L0.645002 17.595C0.551724 17.6895 0.499604 17.8171 0.500002 17.95V22C0.500398 22.1325 0.553203 22.2594 0.646886 22.3531C0.740569 22.4468 0.867516 22.4996 1 22.5H5.05C5.1151 22.5006 5.17965 22.4881 5.2398 22.4632C5.29994 22.4383 5.35443 22.4015 5.4 22.355L21.995 5.89998C22.1366 5.76124 22.249 5.59551 22.3254 5.41257C22.4019 5.22964 22.4408 5.03323 22.44 4.83498C22.4402 4.63607 22.401 4.4391 22.3246 4.25545C22.2482 4.07179 22.1362 3.90509 21.995 3.76498ZM4.845 21.5H1.5V18.155L13.94 5.64998L17.37 9.07998L4.845 21.5ZM21.29 5.18998L18.08 8.36998L14.645 4.93498L17.82 1.74498C17.8663 1.69862 17.9212 1.66183 17.9817 1.63673C18.0422 1.61164 18.107 1.59872 18.1725 1.59872C18.238 1.59872 18.3028 1.61164 18.3633 1.63673C18.4238 1.66183 18.4788 1.69862 18.525 1.74498L21.29 4.47998C21.3375 4.52612 21.3752 4.58131 21.4009 4.64229C21.4267 4.70326 21.44 4.76878 21.44 4.83498C21.44 4.90117 21.4267 4.96669 21.4009 5.02767C21.3752 5.08864 21.3375 5.14383 21.29 5.18998Z" fill="white"/>
</g>
</svg>
