<svg width="19" height="19" viewBox="0 0 19 19" fill="none" xmlns="http://www.w3.org/2000/svg">
<g id="pencil">
<path id="Vector" d="M18.1625 3.13761L15.8583 0.858447C15.6224 0.62636 15.3042 0.496988 14.9733 0.498549C14.6423 0.50011 14.3254 0.632478 14.0917 0.86678L0.370835 14.6626C0.293103 14.7414 0.24967 14.8478 0.250002 14.9584V18.3334C0.250332 18.4439 0.294336 18.5496 0.372405 18.6277C0.450474 18.7058 0.556263 18.7498 0.666669 18.7501H4.04167C4.09592 18.7506 4.14971 18.7402 4.19983 18.7195C4.24995 18.6987 4.29536 18.668 4.33334 18.6293L18.1625 4.91678C18.2805 4.80117 18.3742 4.66305 18.4379 4.51061C18.5016 4.35817 18.534 4.19449 18.5333 4.02928C18.5335 3.86353 18.5008 3.69939 18.4371 3.54634C18.3735 3.39329 18.2801 3.25438 18.1625 3.13761ZM3.87084 17.9168H1.08334V15.1293L11.45 4.70845L14.3083 7.56678L3.87084 17.9168ZM17.575 4.32511L14.9 6.97511L12.0375 4.11261L14.6833 1.45428C14.7219 1.41564 14.7677 1.38499 14.8181 1.36408C14.8685 1.34316 14.9225 1.3324 14.9771 1.3324C15.0317 1.3324 15.0857 1.34316 15.1361 1.36408C15.1865 1.38499 15.2323 1.41564 15.2708 1.45428L17.575 3.73345C17.6146 3.7719 17.646 3.81789 17.6675 3.8687C17.6889 3.91952 17.7 3.97412 17.7 4.02928C17.7 4.08444 17.6889 4.13904 17.6675 4.18986C17.646 4.24067 17.6146 4.28666 17.575 4.32511Z" fill="black"/>
</g>
</svg>
