<svg width="17" height="16" viewBox="0 0 17 16" fill="none" xmlns="http://www.w3.org/2000/svg">
<g id="rotate">
<path id="Vector" d="M16.9167 8C16.9163 8.43972 16.8801 8.87867 16.8083 9.3125C16.7924 9.41109 16.7415 9.50067 16.665 9.56491C16.5885 9.62915 16.4915 9.66378 16.3917 9.6625H16.325C16.2162 9.64413 16.1192 9.58337 16.0551 9.49355C15.9911 9.40372 15.9652 9.29216 15.9833 9.18333C16.0486 8.79224 16.0821 8.3965 16.0833 8C16.0799 6.60157 15.6626 5.23544 14.8841 4.07377C14.1055 2.9121 13.0005 2.00688 11.7083 1.47219C10.4162 0.937493 8.99463 0.797251 7.62288 1.06913C6.25113 1.34102 4.99055 2.01286 4 3C3.35017 3.6556 2.83369 4.43104 2.47917 5.28333L5.15833 4.66666C5.26884 4.64235 5.38448 4.66293 5.47981 4.72388C5.57514 4.78483 5.64235 4.88116 5.66667 4.99166C5.69098 5.10217 5.67039 5.21781 5.60945 5.31314C5.5485 5.40847 5.45217 5.47569 5.34167 5.5L1.59167 6.33333H1.5C1.41288 6.33456 1.32784 6.3067 1.25833 6.25416C1.21106 6.22018 1.17144 6.17667 1.14201 6.12643C1.11259 6.07619 1.09402 6.02035 1.0875 5.9625L0.670833 2.2125C0.664814 2.15778 0.669631 2.10241 0.68501 2.04956C0.700389 1.9967 0.726028 1.94739 0.760463 1.90444C0.794898 1.8615 0.837455 1.82575 0.885704 1.79925C0.933953 1.77275 0.986949 1.75602 1.04167 1.75C1.09638 1.74398 1.15175 1.7488 1.20461 1.76417C1.25746 1.77955 1.30677 1.80519 1.34972 1.83963C1.39267 1.87406 1.42841 1.91662 1.45491 1.96487C1.48141 2.01312 1.49815 2.06611 1.50417 2.12083L1.79583 4.7375C2.19072 3.86902 2.7367 3.07757 3.40833 2.4C4.51595 1.29485 5.92621 0.542706 7.46102 0.23854C8.99583 -0.0656255 10.5864 0.0918312 12.0317 0.691026C13.4771 1.29022 14.7125 2.30428 15.582 3.60515C16.4514 4.90601 16.9158 6.43534 16.9167 8ZM7.54583 14.9333C7.16033 14.8539 6.78251 14.741 6.41667 14.5958C6.36551 14.5759 6.31091 14.5662 6.256 14.5673C6.20109 14.5684 6.14694 14.5803 6.09665 14.6024C5.99506 14.6469 5.91533 14.73 5.875 14.8333C5.83466 14.9367 5.83703 15.0518 5.88157 15.1534C5.92611 15.2549 6.00918 15.3347 6.1125 15.375C6.51867 15.5326 6.93663 15.658 7.3625 15.75H7.45C7.56051 15.761 7.67088 15.7277 7.75683 15.6574C7.84278 15.5871 7.89728 15.4855 7.90833 15.375C7.91938 15.2645 7.88608 15.1541 7.81576 15.0682C7.74543 14.9822 7.64384 14.9277 7.53333 14.9167L7.54583 14.9333ZM4 13L3.84167 12.8375C3.80364 12.797 3.75801 12.7644 3.70738 12.7415C3.65675 12.7187 3.60211 12.706 3.54659 12.7043C3.49107 12.7025 3.43575 12.7118 3.38379 12.7314C3.33183 12.751 3.28424 12.7807 3.24375 12.8187C3.20326 12.8568 3.17065 12.9024 3.1478 12.953C3.12494 13.0037 3.11228 13.0583 3.11054 13.1138C3.1088 13.1693 3.11801 13.2247 3.13765 13.2766C3.15729 13.3286 3.18697 13.3762 3.225 13.4167L3.4 13.6C3.65173 13.8486 3.91893 14.081 4.2 14.2958C4.2435 14.3292 4.29315 14.3537 4.34611 14.3679C4.39907 14.3821 4.45431 14.3857 4.50867 14.3785C4.56303 14.3714 4.61545 14.3536 4.66294 14.3262C4.71042 14.2987 4.75204 14.2622 4.78542 14.2187C4.81879 14.1752 4.84328 14.1256 4.85747 14.0726C4.87166 14.0197 4.87528 13.9644 4.86812 13.9101C4.86096 13.8557 4.84317 13.8033 4.81575 13.7558C4.78833 13.7083 4.75183 13.6667 4.70833 13.6333C4.45865 13.4379 4.22203 13.2263 4 13ZM2.33333 10.3583C2.29631 10.2539 2.21933 10.1685 2.11931 10.1208C2.01929 10.0731 1.90443 10.0671 1.8 10.1042C1.69557 10.1412 1.61012 10.2182 1.56246 10.3182C1.51479 10.4182 1.50881 10.5331 1.54583 10.6375C1.66328 10.9753 1.80246 11.3052 1.9625 11.625C1.99769 11.6929 2.05092 11.7499 2.11633 11.7896C2.18174 11.8292 2.25682 11.8502 2.33333 11.85C2.39984 11.8492 2.46533 11.8335 2.525 11.8042C2.57377 11.7791 2.61711 11.7446 2.65252 11.7027C2.68794 11.6608 2.71474 11.6124 2.73139 11.5601C2.74803 11.5079 2.7542 11.4528 2.74952 11.3982C2.74485 11.3435 2.72944 11.2903 2.70417 11.2417C2.55943 10.9565 2.43549 10.6613 2.33333 10.3583ZM10.6667 14.8875C10.2832 14.9783 9.89305 15.0382 9.5 15.0667C9.39243 15.0752 9.29236 15.1251 9.22086 15.206C9.14936 15.2868 9.11201 15.3922 9.11667 15.5C9.12406 15.6054 9.1712 15.704 9.24856 15.7759C9.32591 15.8479 9.4277 15.8878 9.53333 15.8875H9.5625C10.0008 15.8585 10.4358 15.7916 10.8625 15.6875C10.9224 15.6823 10.9804 15.6641 11.0326 15.6344C11.0848 15.6046 11.1299 15.5639 11.1649 15.5151C11.1999 15.4663 11.2239 15.4104 11.2353 15.3514C11.2467 15.2925 11.2452 15.2317 11.2309 15.1733C11.2166 15.115 11.1899 15.0604 11.1525 15.0134C11.1152 14.9663 11.0681 14.9279 11.0145 14.9007C10.9609 14.8736 10.9021 14.8583 10.842 14.856C10.782 14.8538 10.7222 14.8645 10.6667 14.8875ZM15.95 10.85C15.9005 10.826 15.8468 10.812 15.7919 10.8088C15.7369 10.8056 15.6819 10.8134 15.63 10.8316C15.5781 10.8498 15.5303 10.8781 15.4894 10.9149C15.4485 10.9516 15.4153 10.9962 15.3917 11.0458C15.2238 11.401 15.0259 11.7411 14.8 12.0625C14.7557 12.1247 14.7294 12.1978 14.7238 12.274C14.7183 12.3501 14.7338 12.4263 14.7686 12.4943C14.8035 12.5622 14.8563 12.6192 14.9213 12.6592C14.9864 12.6992 15.0612 12.7205 15.1375 12.7208C15.2047 12.7207 15.2708 12.7044 15.3303 12.6732C15.3898 12.642 15.4409 12.5969 15.4792 12.5417C15.734 12.1825 15.957 11.8019 16.1458 11.4042C16.1934 11.3052 16.1999 11.1914 16.164 11.0877C16.1281 10.9839 16.0527 10.8985 15.9542 10.85H15.95ZM13.45 13.5C13.1434 13.7468 12.8173 13.9683 12.475 14.1625C12.3789 14.2178 12.3086 14.3089 12.2797 14.416C12.2508 14.523 12.2656 14.6372 12.3208 14.7333C12.3761 14.8295 12.4673 14.8997 12.5743 14.9286C12.6814 14.9575 12.7955 14.9427 12.8917 14.8875C13.2803 14.6703 13.651 14.4223 14 14.1458C14.0425 14.1111 14.0777 14.0684 14.1037 14.0201C14.1296 13.9718 14.1458 13.9188 14.1512 13.8642C14.1566 13.8096 14.1512 13.7545 14.1353 13.702C14.1193 13.6495 14.0932 13.6007 14.0583 13.5583C14.0236 13.5152 13.9806 13.4795 13.932 13.4532C13.8833 13.4268 13.8298 13.4105 13.7747 13.4051C13.7197 13.3996 13.664 13.4052 13.6111 13.4215C13.5583 13.4378 13.5091 13.4645 13.4667 13.5H13.45Z" fill="white"/>
</g>
</svg>
