<svg width="24" height="24" viewBox="0 0 24 24" fill="none" xmlns="http://www.w3.org/2000/svg">
<g id="search">
<path id="Vector" d="M22 0.5H2C1.60218 0.5 1.22064 0.658035 0.93934 0.93934C0.658035 1.22064 0.5 1.60218 0.5 2V22C0.5 22.3978 0.658035 22.7794 0.93934 23.0607C1.22064 23.342 1.60218 23.5 2 23.5H22C22.3978 23.5 22.7794 23.342 23.0607 23.0607C23.342 22.7794 23.5 22.3978 23.5 22V2C23.5 1.60218 23.342 1.22064 23.0607 0.93934C22.7794 0.658035 22.3978 0.5 22 0.5ZM2 1.5H22C22.1326 1.5 22.2598 1.55268 22.3536 1.64645C22.4473 1.74021 22.5 1.86739 22.5 2V4.5H1.5V2C1.5 1.86739 1.55268 1.74021 1.64645 1.64645C1.74021 1.55268 1.86739 1.5 2 1.5ZM22 22.5H2C1.86739 22.5 1.74021 22.4473 1.64645 22.3536C1.55268 22.2598 1.5 22.1326 1.5 22V5.5H22.5V22C22.5 22.1326 22.4473 22.2598 22.3536 22.3536C22.2598 22.4473 22.1326 22.5 22 22.5ZM3 3.75C3.14834 3.75 3.29334 3.70601 3.41668 3.6236C3.54001 3.54119 3.63614 3.42406 3.69291 3.28701C3.74968 3.14997 3.76453 2.99917 3.73559 2.85368C3.70665 2.7082 3.63522 2.57456 3.53033 2.46967C3.42544 2.36478 3.2918 2.29335 3.14632 2.26441C3.00083 2.23547 2.85003 2.25032 2.71299 2.30709C2.57594 2.36386 2.45881 2.45999 2.3764 2.58332C2.29399 2.70666 2.25 2.85166 2.25 3C2.25 3.19891 2.32902 3.38968 2.46967 3.53033C2.61032 3.67098 2.80109 3.75 3 3.75ZM3 2.75C3.04945 2.75 3.09778 2.76466 3.13889 2.79213C3.18 2.8196 3.21205 2.85865 3.23097 2.90433C3.24989 2.95001 3.25484 3.00028 3.2452 3.04877C3.23555 3.09727 3.21174 3.14181 3.17678 3.17678C3.14181 3.21174 3.09727 3.23555 3.04877 3.2452C3.00028 3.25484 2.95001 3.24989 2.90433 3.23097C2.85865 3.21205 2.8196 3.18 2.79213 3.13889C2.76466 3.09778 2.75 3.04945 2.75 3C2.75 2.9337 2.77634 2.87011 2.82322 2.82322C2.87011 2.77634 2.9337 2.75 3 2.75ZM5 3.75C5.14834 3.75 5.29334 3.70601 5.41668 3.6236C5.54001 3.54119 5.63614 3.42406 5.69291 3.28701C5.74968 3.14997 5.76453 2.99917 5.73559 2.85368C5.70665 2.7082 5.63522 2.57456 5.53033 2.46967C5.42544 2.36478 5.2918 2.29335 5.14632 2.26441C5.00083 2.23547 4.85003 2.25032 4.71299 2.30709C4.57594 2.36386 4.45881 2.45999 4.3764 2.58332C4.29399 2.70666 4.25 2.85166 4.25 3C4.25 3.19891 4.32902 3.38968 4.46967 3.53033C4.61032 3.67098 4.80109 3.75 5 3.75ZM5 2.75C5.04945 2.75 5.09778 2.76466 5.13889 2.79213C5.18001 2.8196 5.21205 2.85865 5.23097 2.90433C5.24989 2.95001 5.25484 3.00028 5.2452 3.04877C5.23555 3.09727 5.21174 3.14181 5.17678 3.17678C5.14181 3.21174 5.09727 3.23555 5.04877 3.2452C5.00028 3.25484 4.95001 3.24989 4.90433 3.23097C4.85865 3.21205 4.8196 3.18 4.79213 3.13889C4.76466 3.09778 4.75 3.04945 4.75 3C4.75 2.9337 4.77634 2.87011 4.82322 2.82322C4.87011 2.77634 4.9337 2.75 5 2.75ZM7 3.75C7.14834 3.75 7.29334 3.70601 7.41668 3.6236C7.54001 3.54119 7.63614 3.42406 7.69291 3.28701C7.74968 3.14997 7.76453 2.99917 7.73559 2.85368C7.70665 2.7082 7.63522 2.57456 7.53033 2.46967C7.42544 2.36478 7.2918 2.29335 7.14632 2.26441C7.00083 2.23547 6.85003 2.25032 6.71299 2.30709C6.57594 2.36386 6.45881 2.45999 6.3764 2.58332C6.29399 2.70666 6.25 2.85166 6.25 3C6.25 3.19891 6.32902 3.38968 6.46967 3.53033C6.61032 3.67098 6.80109 3.75 7 3.75ZM7 2.75C7.04945 2.75 7.09778 2.76466 7.13889 2.79213C7.18001 2.8196 7.21205 2.85865 7.23097 2.90433C7.24989 2.95001 7.25484 3.00028 7.2452 3.04877C7.23555 3.09727 7.21174 3.14181 7.17678 3.17678C7.14181 3.21174 7.09727 3.23555 7.04877 3.2452C7.00028 3.25484 6.95001 3.24989 6.90433 3.23097C6.85865 3.21205 6.8196 3.18 6.79213 3.13889C6.76466 3.09778 6.75 3.04945 6.75 3C6.75 2.9337 6.77634 2.87011 6.82322 2.82322C6.87011 2.77634 6.9337 2.75 7 2.75ZM17 10.5H7C6.73478 10.5 6.48043 10.6054 6.29289 10.7929C6.10536 10.9804 6 11.2348 6 11.5V12.5C6 12.7652 6.10536 13.0196 6.29289 13.2071C6.48043 13.3946 6.73478 13.5 7 13.5H17C17.2652 13.5 17.5196 13.3946 17.7071 13.2071C17.8946 13.0196 18 12.7652 18 12.5V11.5C18 11.2348 17.8946 10.9804 17.7071 10.7929C17.5196 10.6054 17.2652 10.5 17 10.5ZM7 11.5H14.5V12.5H7V11.5ZM15.5 12.5V11.5H17V12.5H15.5ZM11.5 15C11.5 15.1326 11.4473 15.2598 11.3536 15.3536C11.2598 15.4473 11.1326 15.5 11 15.5H8C7.86739 15.5 7.74021 15.4473 7.64645 15.3536C7.55268 15.2598 7.5 15.1326 7.5 15C7.5 14.8674 7.55268 14.7402 7.64645 14.6464C7.74021 14.5527 7.86739 14.5 8 14.5H11C11.1326 14.5 11.2598 14.5527 11.3536 14.6464C11.4473 14.7402 11.5 14.8674 11.5 15ZM16.5 15C16.5 15.1326 16.4473 15.2598 16.3536 15.3536C16.2598 15.4473 16.1326 15.5 16 15.5H13C12.8674 15.5 12.7402 15.4473 12.6464 15.3536C12.5527 15.2598 12.5 15.1326 12.5 15C12.5 14.8674 12.5527 14.7402 12.6464 14.6464C12.7402 14.5527 12.8674 14.5 13 14.5H16C16.1326 14.5 16.2598 14.5527 16.3536 14.6464C16.4473 14.7402 16.5 14.8674 16.5 15Z" fill="black"/>
</g>
</svg>
