<svg width="24" height="24" viewBox="0 0 24 24" fill="none" xmlns="http://www.w3.org/2000/svg">
<g id="Main / copy">
<path id="Union" fill-rule="evenodd" clip-rule="evenodd" d="M15.462 1.30864C15.4871 1.36931 15.5 1.43433 15.5 1.5V2.5H14.5V2H14V1H15C15.0657 0.999983 15.1307 1.0129 15.1914 1.03803C15.252 1.06315 15.3072 1.09998 15.3536 1.14641C15.4 1.19284 15.4369 1.24797 15.462 1.30864ZM6 1H4V2H6V1ZM7.5 1H9.5V2H7.5V1ZM11 1H13V2H11V1ZM1 1.5V2.5H2V2H2.5V1H1.5C1.36741 1.00005 1.24026 1.05274 1.1465 1.1465C1.05274 1.24026 1.00005 1.36741 1 1.5ZM1 5.7915V3.875H2V5.7915H1ZM14.5 4V6H15.5V4H14.5ZM1 9.146V7.22949H2V9.146H1ZM1 10.5835V12.5H2V10.5835H1ZM1 15V14H2V14.5H2.5V15.5H1.5C1.43433 15.5 1.36931 15.4871 1.30864 15.462C1.24797 15.4369 1.19284 15.4 1.14641 15.3536C1.09998 15.3072 1.06315 15.252 1.03803 15.1914C1.0129 15.1307 0.999983 15.0657 1 15ZM6 14.5H4V15.5H6V14.5ZM15.5 8.5H22.5C22.5657 8.49998 22.6307 8.5129 22.6914 8.53803C22.752 8.56315 22.8072 8.59998 22.8536 8.64641C22.9 8.69284 22.9369 8.74797 22.962 8.80864C22.9871 8.86931 23 8.93433 23 9V22.5C23.0001 22.5657 22.9872 22.6307 22.9621 22.6914C22.937 22.7521 22.9001 22.8072 22.8537 22.8537C22.8072 22.9001 22.7521 22.937 22.6914 22.9621C22.6307 22.9872 22.5657 23.0001 22.5 23H9C8.93433 23 8.86931 22.9871 8.80864 22.962C8.74797 22.9369 8.69284 22.9 8.64641 22.8536C8.59998 22.8072 8.56315 22.752 8.53803 22.6914C8.5129 22.6307 8.49998 22.5657 8.5 22.5V15.5H7.5V14.5H8.5V9C8.50005 8.86741 8.55274 8.74026 8.6465 8.6465C8.74026 8.55274 8.86741 8.50005 9 8.5H14.5V7.5H15.5V8.5ZM9.5 22H22V9.5H9.5V22Z" fill="black"/>
</g>
</svg>
