<svg width="12" height="12" viewBox="0 0 12 12" fill="none" xmlns="http://www.w3.org/2000/svg">
<g id="Main / cross">
<path id="Vector" d="M10.6151 1.32322C10.6383 1.34644 10.6567 1.374 10.6693 1.40433C10.6819 1.43466 10.6883 1.46717 10.6883 1.5C10.6883 1.53283 10.6819 1.56534 10.6693 1.59567C10.6567 1.626 10.6383 1.65356 10.6151 1.67678L6.29206 6L10.6151 10.3232C10.6383 10.3464 10.6567 10.374 10.6693 10.4043C10.6819 10.4347 10.6883 10.4672 10.6883 10.5C10.6883 10.5328 10.6819 10.5653 10.6693 10.5957C10.6567 10.626 10.6383 10.6536 10.6151 10.6768C10.5919 10.7 10.5643 10.7184 10.534 10.731C10.5037 10.7435 10.4712 10.75 10.4383 10.75C10.4055 10.75 10.373 10.7435 10.3427 10.731C10.3123 10.7184 10.2848 10.7 10.2615 10.6768L5.9383 6.35375L1.73858 10.5533C1.69164 10.5999 1.62813 10.626 1.56198 10.6259C1.49583 10.6258 1.43242 10.5995 1.38564 10.5527C1.33886 10.5059 1.31253 10.4425 1.31241 10.3763C1.3123 10.3102 1.33841 10.2467 1.38502 10.1998L5.58456 6L1.38502 1.80025C1.36172 1.77705 1.34322 1.74949 1.33059 1.71914C1.31796 1.68878 1.31144 1.65624 1.3114 1.62336C1.31136 1.59048 1.31781 1.55792 1.33038 1.52754C1.34294 1.49715 1.36138 1.46955 1.38463 1.4463C1.40787 1.42305 1.43548 1.40462 1.46586 1.39205C1.49624 1.37949 1.52881 1.37304 1.56168 1.37308C1.59456 1.37312 1.62711 1.37964 1.65746 1.39227C1.68782 1.4049 1.71538 1.4234 1.73858 1.4467L5.9383 5.64625L10.2615 1.32322C10.3084 1.27634 10.372 1.25 10.4383 1.25C10.5046 1.25 10.5682 1.27634 10.6151 1.32322Z" fill="white"/>
</g>
</svg>
