<svg width="16" height="24" viewBox="0 0 16 24" fill="none" xmlns="http://www.w3.org/2000/svg">
<g id="door">
<path id="Vector" d="M4.5 20.5H1.5C1.10231 20.4996 0.72103 20.3414 0.439819 20.0602C0.158609 19.779 0.000434098 19.3977 0 19V5.5C0.000434098 5.10231 0.158609 4.72103 0.439819 4.43982C0.72103 4.15861 1.10231 4.00043 1.5 4H4.5C4.63261 4 4.75979 4.05268 4.85355 4.14644C4.94732 4.24021 5 4.36739 5 4.5C5 4.63261 4.94732 4.75978 4.85355 4.85355C4.75979 4.94732 4.63261 5 4.5 5H1.5C1.36743 5.00013 1.24033 5.05285 1.14659 5.14659C1.05285 5.24033 1.00013 5.36743 1 5.5V19C1.00013 19.1326 1.05285 19.2597 1.14659 19.3534C1.24033 19.4471 1.36743 19.4999 1.5 19.5H4.5C4.63261 19.5 4.75979 19.5527 4.85355 19.6464C4.94732 19.7402 5 19.8674 5 20C5 20.1326 4.94732 20.2598 4.85355 20.3536C4.75979 20.4473 4.63261 20.5 4.5 20.5ZM7.72803 23.1118L14.728 19.2229C14.9619 19.093 15.1568 18.9029 15.2926 18.6724C15.4283 18.4418 15.4999 18.1792 15.5 17.9116V6.08838C15.5 5.82086 15.4283 5.55822 15.2926 5.32769C15.1569 5.09717 14.9619 4.90715 14.728 4.77734L7.7285 0.888183C7.50014 0.761331 7.24261 0.696313 6.9814 0.699564C6.72019 0.702815 6.46436 0.774222 6.23923 0.906718C6.0141 1.03921 5.82747 1.2282 5.69781 1.45499C5.56815 1.68177 5.49997 1.93847 5.5 2.1997V21.8003C5.50032 22.0613 5.56872 22.3178 5.69842 22.5443C5.82813 22.7708 6.01467 22.9596 6.23963 23.0921C6.46459 23.2245 6.72019 23.2959 6.98121 23.2994C7.24223 23.3029 7.49963 23.2382 7.72803 23.1118V23.1118ZM7.24219 1.7622H7.24269L14.2427 5.65161C14.3206 5.69484 14.3856 5.75813 14.4309 5.83493C14.4761 5.91173 14.5 5.99924 14.5 6.08838V17.9116C14.4999 18.0008 14.4761 18.0883 14.4308 18.1651C14.3856 18.242 14.3206 18.3053 14.2427 18.3486L7.24218 22.2378C7.16604 22.2799 7.08025 22.3014 6.99327 22.3002C6.90629 22.299 6.82112 22.2751 6.74618 22.2309C6.67124 22.1868 6.60911 22.1238 6.56594 22.0483C6.52277 21.9728 6.50004 21.8873 6.5 21.8003V2.1997C6.50012 2.11274 6.5229 2.02731 6.56609 1.95183C6.60929 1.87636 6.6714 1.81344 6.74632 1.76928C6.82123 1.72512 6.90636 1.70124 6.99332 1.7C7.08027 1.69876 7.16605 1.7202 7.24219 1.7622ZM9.77783 11.8335C9.77783 10.9224 9.43994 10.3335 8.9165 10.3335C8.39355 10.3335 8.05567 10.9224 8.05567 11.8335C8.05567 12.7446 8.39355 13.3335 8.9165 13.3335C9.43994 13.3335 9.77783 12.7446 9.77783 11.8335Z" fill="black"/>
</g>
</svg>
