<svg width="23" height="23" viewBox="0 0 23 23" fill="none" xmlns="http://www.w3.org/2000/svg">
<g id="pencil">
<path id="Vector" d="M21.995 3.76499L19.23 1.02999C18.9469 0.751488 18.5651 0.596242 18.1679 0.598116C17.7708 0.599989 17.3905 0.75883 17.11 1.03999L0.645002 17.595C0.551724 17.6896 0.499604 17.8172 0.500002 17.95V22C0.500398 22.1325 0.553203 22.2594 0.646886 22.3531C0.740569 22.4468 0.867516 22.4996 1 22.5H5.05C5.1151 22.5006 5.17965 22.4881 5.2398 22.4632C5.29994 22.4383 5.35443 22.4015 5.4 22.355L21.995 5.89999C22.1366 5.76126 22.249 5.59552 22.3254 5.41259C22.4019 5.22966 22.4408 5.03325 22.44 4.83499C22.4402 4.63609 22.401 4.43912 22.3246 4.25546C22.2482 4.07181 22.1362 3.90511 21.995 3.76499ZM4.845 21.5H1.5V18.155L13.94 5.64999L17.37 9.07999L4.845 21.5ZM21.29 5.18999L18.08 8.36999L14.645 4.93499L17.82 1.74499C17.8663 1.69863 17.9212 1.66185 17.9817 1.63675C18.0422 1.61165 18.107 1.59873 18.1725 1.59873C18.238 1.59873 18.3028 1.61165 18.3633 1.63675C18.4238 1.66185 18.4788 1.69863 18.525 1.74499L21.29 4.47999C21.3375 4.52614 21.3752 4.58133 21.4009 4.6423C21.4267 4.70328 21.44 4.7688 21.44 4.83499C21.44 4.90119 21.4267 4.96671 21.4009 5.02768C21.3752 5.08866 21.3375 5.14385 21.29 5.18999Z" fill="white"/>
</g>
</svg>
