<svg width="21" height="21" viewBox="0 0 21 21" fill="none" xmlns="http://www.w3.org/2000/svg">
<g id="search">
<path id="Vector" d="M20.5 18.38L13.755 11.635C14.7809 10.0837 15.1942 8.20662 14.9148 6.36785C14.6353 4.52907 13.683 2.85958 12.2425 1.6831C10.8019 0.506626 8.97587 -0.093014 7.11833 0.000456609C5.26079 0.0939273 3.50413 0.873849 2.18899 2.18899C0.873849 3.50413 0.0939273 5.26079 0.000456609 7.11833C-0.093014 8.97587 0.506626 10.8019 1.6831 12.2425C2.85958 13.683 4.52907 14.6353 6.36785 14.9148C8.20662 15.1942 10.0837 14.7809 11.635 13.755L18.38 20.5C18.4726 20.5925 18.5825 20.6657 18.7035 20.7155C18.8245 20.7653 18.9542 20.7906 19.085 20.79C19.3508 20.7912 19.6061 20.6869 19.795 20.5L20.5 19.795C20.6873 19.6072 20.7925 19.3528 20.7925 19.0875C20.7925 18.8222 20.6873 18.5678 20.5 18.38ZM1.00001 7.50001C1.00001 6.21443 1.38123 4.95772 2.09546 3.8888C2.80968 2.81988 3.82485 1.98676 5.01257 1.49479C6.20029 1.00282 7.50722 0.8741 8.7681 1.1249C10.029 1.37571 11.1872 1.99477 12.0962 2.90381C13.0052 3.81286 13.6243 4.97104 13.8751 6.23192C14.1259 7.4928 13.9972 8.79973 13.5052 9.98745C13.0133 11.1752 12.1801 12.1903 11.1112 12.9046C10.0423 13.6188 8.78559 14 7.50001 14C5.77661 13.9984 4.12426 13.313 2.90563 12.0944C1.687 10.8758 1.00165 9.22341 1.00001 7.50001ZM19.085 19.795L12.435 13.14C12.6848 12.9202 12.9202 12.6848 13.14 12.435L19.795 19.085L19.085 19.795Z" fill="black"/>
</g>
</svg>
