<svg width="22" height="24" viewBox="0 0 22 24" fill="none" xmlns="http://www.w3.org/2000/svg">
<g id="unlock">
<path id="Vector" d="M17.51 7.05999C17.3881 6.79142 17.1853 6.56766 16.93 6.41999C16.933 5.60448 16.8356 4.7917 16.64 3.99999C16.635 3.96499 15.645 0.484985 11.39 0.484985C7.13998 0.484985 6.14998 3.96499 6.13998 4.00499C5.94536 4.79508 5.84963 5.60629 5.85498 6.41999C5.59926 6.56865 5.39513 6.79197 5.26998 7.05999C4.95498 7.73499 5.12998 8.67499 5.78998 9.84999C5.88746 9.98715 6.01823 10.0973 6.16998 10.17C6.19474 10.1895 6.22157 10.2063 6.24998 10.22C6.70733 11.4421 7.42372 12.5508 8.34998 13.47C7.59219 14.0498 6.73717 14.49 5.82498 14.77C3.50998 15.5 0.404981 17.05 0.164981 22.035C0.159982 22.1558 0.198677 22.2743 0.273977 22.3689C0.349278 22.4635 0.456139 22.5278 0.574981 22.55C4.23483 23.1685 7.93834 23.4929 11.65 23.52C12.105 23.52 12.56 23.51 13.015 23.5C13.1475 23.4956 13.2728 23.439 13.3637 23.3425C13.4546 23.246 13.5036 23.1175 13.5 22.985C13.4991 22.919 13.4849 22.8539 13.4583 22.7935C13.4317 22.7331 13.3933 22.6786 13.3452 22.6334C13.2972 22.5881 13.2405 22.553 13.1787 22.5301C13.1168 22.5072 13.0509 22.4969 12.985 22.5C9.03751 22.5614 5.09229 22.2753 1.19498 21.645C1.53998 17.7 3.86998 16.435 6.12498 15.725C7.22393 15.3964 8.24577 14.8506 9.12998 14.12C9.78528 14.6047 10.575 14.8738 11.39 14.89C12.1903 14.8746 12.9668 14.6147 13.615 14.145C13.9459 14.4939 14.3372 14.7802 14.77 14.99C14.8407 15.0275 14.9199 15.0464 15 15.045C15.1118 15.0456 15.2206 15.0085 15.3087 14.9397C15.3969 14.8709 15.4593 14.7744 15.4859 14.6657C15.5124 14.5571 15.5016 14.4427 15.4552 14.341C15.4088 14.2392 15.3294 14.1561 15.23 14.105C14.921 13.9533 14.6375 13.7542 14.39 13.515C15.3365 12.5861 16.0686 11.4615 16.535 10.22C16.5627 10.2051 16.5895 10.1884 16.615 10.17C16.7663 10.0987 16.8958 9.98822 16.99 9.84999C17.655 8.67499 17.83 7.73499 17.51 7.05999ZM16.165 9.27499C16.14 9.28999 16.115 9.30499 16.085 9.32499C15.855 9.46999 15.685 9.57001 15.625 9.78999C15.375 10.66 13.68 13.89 11.39 13.89C9.10498 13.89 7.40998 10.66 7.15998 9.79499C7.09998 9.57499 6.92998 9.46999 6.69498 9.32499C6.66947 9.30653 6.64275 9.28983 6.61498 9.27499C6.00498 8.15499 6.09998 7.65999 6.17001 7.49499C6.19746 7.4352 6.23693 7.3817 6.28596 7.33783C6.33498 7.29396 6.39252 7.26065 6.45498 7.23998C6.57446 7.21797 6.6817 7.15285 6.75636 7.057C6.83101 6.96115 6.86788 6.84122 6.85998 6.71999C6.8307 5.89435 6.91312 5.06855 7.10498 4.26499C7.13998 4.14999 7.91998 1.48499 11.39 1.48499C14.86 1.48499 15.645 4.14999 15.675 4.25999C15.8668 5.06526 15.9492 5.8927 15.92 6.71999C15.9169 6.83939 15.955 6.95621 16.0278 7.05088C16.1006 7.14555 16.2038 7.21232 16.32 7.23998C16.3843 7.25814 16.4437 7.29046 16.4939 7.33459C16.5441 7.37872 16.5838 7.43352 16.61 7.49499C16.685 7.65999 16.78 8.15499 16.165 9.27499ZM21.725 18.555C21.8166 18.0379 21.7826 17.5065 21.626 17.0053C21.4694 16.5041 21.1947 16.0479 20.825 15.675C20.5238 15.3723 20.1658 15.1321 19.7715 14.9682C19.3772 14.8044 18.9545 14.72 18.5275 14.72C18.1005 14.72 17.6777 14.8044 17.2834 14.9682C16.8892 15.1321 16.5312 15.3723 16.23 15.675C16.1837 15.7213 16.147 15.7762 16.1219 15.8367C16.0969 15.8972 16.084 15.962 16.084 16.0275C16.084 16.093 16.0969 16.1578 16.1219 16.2183C16.147 16.2787 16.1837 16.3337 16.23 16.38C16.2763 16.4263 16.3312 16.463 16.3917 16.488C16.4522 16.5131 16.517 16.526 16.5825 16.526C16.6479 16.526 16.7128 16.5131 16.7733 16.488C16.8337 16.463 16.8887 16.4263 16.935 16.38C17.1441 16.1707 17.3923 16.0048 17.6656 15.8915C17.9388 15.7783 18.2317 15.72 18.5275 15.72C18.8233 15.72 19.1162 15.7783 19.3894 15.8915C19.6627 16.0048 19.9109 16.1707 20.12 16.38C20.3913 16.6535 20.5884 16.9918 20.6925 17.3628C20.7966 17.7338 20.8044 18.1252 20.715 18.5H15.5C15.3675 18.5004 15.2405 18.5532 15.1469 18.6469C15.0532 18.7406 15.0004 18.8675 15 19V22C15.0011 22.3975 15.1596 22.7783 15.4406 23.0594C15.7217 23.3404 16.1025 23.4988 16.5 23.5H20.5C20.8974 23.4988 21.2783 23.3404 21.5594 23.0594C21.8404 22.7783 21.9988 22.3975 22 22V19C22.0007 18.9074 21.9752 18.8166 21.9266 18.7379C21.8779 18.6592 21.808 18.5958 21.725 18.555ZM21 22C20.9996 22.1325 20.9468 22.2594 20.8531 22.3531C20.7594 22.4468 20.6325 22.4996 20.5 22.5H16.5C16.3675 22.4996 16.2405 22.4468 16.1469 22.3531C16.0532 22.2594 16.0004 22.1325 16 22V19.5H21V22Z" fill="black"/>
</g>
</svg>
